<svg viewBox="0 0 440.21504 327.70163" xmlns="http://www.w3.org/2000/svg"><g fill="#ffffff"><circle cx="204.62566" cy="195.76132" r="6.14751"/><circle cx="235.58973" cy="195.76132" r="6.14751"/><path d="m366.84241 222.26783c13.37669.05921 30.1277-6.04976 37.22286-17.45029a39.7381 39.7381 0 0 0 5.85113-20.195c.0839-5.09874-.67011-10.99925-5.41028-13.93967-8.09231-5.01981-17.61986 2.80411-17.67693 11.34138-.08675 12.97515 15.72757 17.47367 26.01677 18.78731a22.27734 22.27734 0 0 0 12.39267-1.4496 20.27041 20.27041 0 0 0 8.02284-7.1686c4.72261-6.96563 5.01646-15.7152 5.149-23.837.06648-4.07332-6.26116-4.07433-6.32765 0-.15777 9.66643-1.09609 25.54883-13.9722 26.39481-5.0416.33124-10.53669-.9779-15.24587-2.71591-3.51807-1.29841-7.72114-3.49385-9.21113-7.182a7.10554 7.10554 0 0 1 1.522-7.658 5.21487 5.21487 0 0 1 5.71217-1.32843c-.507-.21995.43469.287.4246.27985.795.56434-.289-.34134.43124.35912a4.21216 4.21216 0 0 1 1.02845 1.49649 14.78038 14.78038 0 0 1 .82146 5.91992 33.30682 33.30682 0 0 1 -3.93748 15.8864c-5.7076 10.54292-20.88922 16.18443-32.81369 16.13165-4.07224-.018-4.07743 6.30961 0 6.32765z"/><path d="m119.40807 171.7088c.297-.4769.62942-1.01613.98922-1.61864l-2.15788 3.05691a8.07488 8.07488 0 0 0 1.16866-1.43827z"/><path d="m116.3469 180.439a4.02446 4.02446 0 0 0 -2.428-2.7873q-2.33945.53971-2.97145 1.61865a5.29915 5.29915 0 0 0 -.62942 2.69711c0 1.07894.05855 2.284.1799 3.60559a9.01716 9.01716 0 0 1 -.53924 3.956c1.07894.3598 1.80233.3598 2.16213 0a3.33053 3.33053 0 0 0 .80932-1.43827c.17991-.60251.35981-1.16913.53924-1.70836a1.24621 1.24621 0 0 1 1.349-.80932l-.5397-1.44771 1.61864.3598a6.47126 6.47126 0 0 0 .44958-4.04619z"/><path d="m100.60337 201.22687q4.13349 1.61841 5.93865-1.79855a1.95782 1.95782 0 0 0 -.90376-2.51721 5.14969 5.14969 0 0 0 -3.05692-.81829 4.598 4.598 0 0 0 -2.792 1.08791c-.78193.65634-.87212 1.70836-.26961 3.1471l1.62289-.5397z"/><path d="m104.82894 191.05793c-.78194.66531-.87213 1.70789-.26962 3.14663l1.62289-.53923-.54395 1.43827c2.76038 1.07894 4.73836.48587 5.93865-1.79808a1.9551 1.9551 0 0 0 -.899-2.51768 5.07451 5.07451 0 0 0 -3.05692-.80885 4.64124 4.64124 0 0 0 -2.79205 1.07894z"/><path d="m114.27874 184.12534 3.06164 2.88645c-.48116-.48587-.96231-.96231-1.443-1.43874a20.30514 20.30514 0 0 0 -1.61864-1.44771z"/><path d="m132.27459 220.93533a4.62213 4.62213 0 0 0 -2.7873 1.07894c-.78194.65633-.87212 1.70835-.26962 3.1471l1.61865-.53971-.53971 1.43874q4.13349 1.61841 5.93865-1.79807a1.96325 1.96325 0 0 0 -.899-2.51768 5.09226 5.09226 0 0 0 -3.06167-.80932z"/><path d="m106.90135 182.59688a1.22425 1.22425 0 0 0 .98922-.53923 1.97534 1.97534 0 0 0 -.09019-1.52846h-3.9602v2.15788a4.51123 4.51123 0 0 1 1.52846-.09019 6.25308 6.25308 0 0 0 1.53271 0z"/><path d="m332.65642 225.62269 3.06163-3.956a11.09717 11.09717 0 0 0 -1.52845 1.88779 20.604 20.604 0 0 1 -1.53318 2.06821z"/><path d="m331.03825 226.70163 1.23759-4.67556h-.15866l.53924-1.43827a4.70054 4.70054 0 0 0 -1.16866 2.877 20.54709 20.54709 0 0 1 -.44951 3.23683z"/><path d="m366.053 99.26786c30.19376-3.52343 74.162-47.1135 74.162-47.1135l-.86551-1.10255a93.65793 93.65793 0 0 0 -115.01908-45.63226c-14.00165 5.01459-26.58581 13.274-38.75491 21.82431a9.86076 9.86076 0 0 0 -3.2897 3.19527 5.13883 5.13883 0 0 0 -.17707.74416 154.24648 154.24648 0 0 0 -124.00194 0 5.14014 5.14014 0 0 0 -.17707-.74416 9.86224 9.86224 0 0 0 -3.29017-3.19527c-12.16864-8.55029-24.75327-16.80972-38.75444-21.82431a93.65795 93.65795 0 0 0 -115.01911 45.63226l-.866 1.10255s43.96876 43.59007 74.162 47.1135c3.166.36972 6.341.52177 9.51544.61809a154.7636 154.7636 0 1 0 272.86056-.00047c3.174-.09633 6.34948-.24837 9.515-.61762zm35.22959-60.685h1.79807a3.49991 3.49991 0 0 0 1.52893-.27009c.35933-.17943.35933-.746 0-1.70836q1.98246.90377 3.87049 1.70836a3.55074 3.55074 0 0 1 2.06816 3.327 3.40742 3.40742 0 0 1 -2.69758 1.07894 6.32316 6.32316 0 0 1 -2.342-.80932c-.71961-.41363-1.47038-.899-2.24806-1.43874a4.48724 4.48724 0 0 0 -2.6074-.80885c-.12138-.7196.09016-1.07893.62939-1.07893zm2.6074 9.71942a4.28969 4.28969 0 0 1 2.70183-.71913 10.8884 10.8884 0 0 0 .3598 1.61817 3.09878 3.09878 0 0 1 .1799.899 2.25076 2.25076 0 0 1 -.1799.80933 8.023 8.023 0 0 0 -.3598 1.52845 14.06445 14.06445 0 0 0 -3.60087-1.34855 2.899 2.899 0 0 1 -2.33778-2.6074c1.55537.35937 2.63431.29657 3.23683-.17986zm-5.21952 9.18019h3.06164v5.03489q-5.04363-.5397-3.06164-5.03488zm-3.05691-19.79912a3.63351 3.63351 0 0 0 -.62942 1.07941.73826.73826 0 0 0 .09018.62895 4.4493 4.4493 0 0 1 .35934.71961 4.6488 4.6488 0 0 1 .1799 1.52845 7.43405 7.43405 0 0 1 -1.98223-.98922 7.98228 7.98228 0 0 0 -1.97845-.98875q.53972-2.52216 3.96068-1.97844zm-6.84241 23.75507a2.51112 2.51112 0 0 0 -2.06769-.899c-.899 0-1.23193-.65633-.98922-1.978q3.95855-1.07942 3.05691 2.87701zm-8.276-15.74354a2.65591 2.65591 0 0 1 2.33731.98876 1.41719 1.41719 0 0 1 -1.61817.80932 9.91136 9.91136 0 0 0 -2.33778.09019q.17569-1.79405 1.61868-1.88826zm-5.75915-13.04641c1.07894-.2427 1.6772 0 1.79855.71914.12135.7196.238 1.50154.35933 2.33778a1.679 1.679 0 0 1 -.98875-.53924c-.1799-.2427-.57087-.3598-1.16913-.3598zm-8.64048 8.36189a2.67029 2.67029 0 0 1 1.17338-1.25884 1.93036 1.93036 0 0 1 1.70836-.08971 2.40566 2.40566 0 0 1 -.08972 1.52846 2.04233 2.04233 0 0 1 -.71961.71913 8.58365 8.58365 0 0 0 -.899.62942 1.30876 1.30876 0 0 0 -.44952 1.08791 1.09333 1.09333 0 0 1 -.99347-.99819 3.11552 3.11552 0 0 1 .26955-1.61818zm-337.49393 9.913a6.3677 6.3677 0 0 1 -1.94918-2.14655 8.54942 8.54942 0 0 1 -1.13229-3.10507 2.559 2.559 0 0 1 .70922-2.48321 7.71532 7.71532 0 0 1 3.14143 3.52532 18.56214 18.56214 0 0 1 .99017 3.82374 1.12741 1.12741 0 0 1 -1.75938.38579zm9.5409-10.39746a11.03867 11.03867 0 0 1 3.52674-5.63456 9.8631 9.8631 0 0 1 2.43269-1.58512 19.03609 19.03609 0 0 0 -.86032 2.93509 33.72909 33.72909 0 0 1 -1.01236 3.52674 8.29636 8.29636 0 0 1 -1.4548 2.66123 1.91164 1.91164 0 0 1 -2.18526.61289 2.61567 2.61567 0 0 1 -.44669-2.51627zm9.98715 26.35633a6.649 6.649 0 0 1 -2.2424-.97647c-.76446-.49013-1.50248-.9694-2.21643-1.42836a3.42331 3.42331 0 0 0 -2.08657-.60581 2.40737 2.40737 0 0 1 -.60345-2.05825q.07011-1.469.10576-2.7533a3.311 3.311 0 0 0 -.33052-1.82357q-.36689-.54608-1.80469.58409a1.97856 1.97856 0 0 1 1.19132-1.9402 6.23234 6.23234 0 0 1 2.70183-.52507 12.0349 12.0349 0 0 1 3.16269.46369 9.55478 9.55478 0 0 1 2.83735 1.24987q-5.76181 4.77731 1.324 8.95637a2.05363 2.05363 0 0 1 -2.03889.85701zm2.8501-22.13217 1.87409-2.18338 2.31984 1.99073-1.87409 2.18337zm10.70014 19.88694c-.7994-.449-1.646-.89148-2.52854-1.34053l-1.35186.747a3.24145 3.24145 0 0 0 -.93587-.56614 10.597 10.597 0 0 0 -1.34572-.08877 7.33546 7.33546 0 0 0 -1.95436.33713c-.02267-.339.52695-.61383 1.66208-.8249 1.137-.22051 1.66161-.27953 1.58559-.19076l.78147-1.46235 1.443.52743c.72527-.47927 1.24042-.66531 1.55065-.56474a1.65153 1.65153 0 0 1 .82868.82963q.37185.67428.94814 1.52468a4.127 4.127 0 0 0 1.76455 1.39577 3.11341 3.11341 0 0 1 -2.44781-.32345zm3.91818-24.74193a2.98678 2.98678 0 0 0 -2.48321.13174 7.151 7.151 0 0 0 -2.03885 1.68619 9.82228 9.82228 0 0 1 -2.02991 1.81271q-1.056-.42638-1.22815-1.05438a3.30734 3.30734 0 0 1 -.10011-1.27065 3.23233 3.23233 0 0 0 -.09679-1.26781 2.2534 2.2534 0 0 0 -1.111-1.19037 14.0338 14.0338 0 0 1 2.1083-2.4563 2.72045 2.72045 0 0 1 1.35186-.74747c.41505-.11757.628-.08924.64406.07886l-1.83349-.62564a3.90633 3.90633 0 0 0 -1.27017-1.56387 28.37484 28.37484 0 0 0 -3.03142-2.12813 67.16268 67.16268 0 0 0 -5.92685-3.17921l4.5731-5.32859a28.10606 28.10606 0 0 1 4.30159 4.52115 8.11326 8.11326 0 0 1 1.45291 5.63079l1.85237.87873c.02267.3395.33667.526.93587.56662a8.55938 8.55938 0 0 0 2.155-.16479 26.04415 26.04415 0 0 0 4.24682-1.213 7.86861 7.86861 0 0 0 .1138 4.837 11.80952 11.80952 0 0 1 .62469 4.80163 8.16668 8.16668 0 0 0 -3.21042-2.75521zm158.64319 22.25305c.83624-.3598 1.37547-.4226 1.61864-.1799a1.48235 1.48235 0 0 1 .35934 1.07894 11.87115 11.87115 0 0 0 .09018 1.43874c.05808.4854.391.66531.98876.53923-.35934.71914-.77769 1.11483-1.25885 1.16913a1.43873 1.43873 0 0 1 -1.25836-.45 3.33555 3.33555 0 0 1 -.80933-1.52846 2.843 2.843 0 0 1 .26962-2.06768zm0 27.71055c1.79807-.23373 2.94029-.11663 3.421.3598a2.58945 2.58945 0 0 1 .71961 1.89723c0 .78241.02691 1.52846.08971 2.2476.05855.7196.62942 1.196 1.70836 1.43874-.60251 1.196-1.32164 1.70836-2.15788 1.52846a4.18727 4.18727 0 0 1 -2.342-1.61818 9.31922 9.31922 0 0 1 -1.61864-3.05738 3.1588 3.1588 0 0 1 .17984-2.79627zm-26.81625-18.62055a5.47036 5.47036 0 0 1 1.978-1.16865c.72386-.24318 1.41183-.48588 2.07242-.71961a1.41565 1.41565 0 0 0 .98922-1.44771 4.86877 4.86877 0 0 1 3.06164 2.97617 26.844 26.844 0 0 0 1.79807 4.04614 1.99461 1.99461 0 0 0 .98922 1.52845 7.72829 7.72829 0 0 0 1.79808.71961 5.0321 5.0321 0 0 1 1.71261.80885 2.021 2.021 0 0 1 .5397 1.978q-2.52216-.71466-4.77-1.25837a13.71778 13.71778 0 0 1 -4.23029-1.79855v1.07894h-.899a2.1 2.1 0 0 1 -.899 1.52846 2.74225 2.74225 0 0 0 -1.07894 1.358c-.7196-.12608-1.052-.60251-.99347-1.44772a11.54961 11.54961 0 0 0 -.09019-2.51768v-.899h1.08366c.11663-1.07893.02692-1.64555-.27008-1.70835a1.85092 1.85092 0 0 0 -1.08319.1799 8.60423 8.60423 0 0 1 -1.34856.44952c-.48115.1171-.89951-.17991-1.25884-.899a3.60063 3.60063 0 0 1 .89894-2.7874zm-20.5324 31.82515a1.30168 1.30168 0 0 0 .45-1.07894 3.65314 3.65314 0 0 1 1.443.98923 2.66664 2.66664 0 0 1 .35934 2.06816 1.42464 1.42464 0 0 1 -1.53271-.45 1.56756 1.56756 0 0 0 -1.34856-.629 1.88273 1.88273 0 0 1 .62893-.89945zm-9.62923 27.72c.72385.11711 1.08319-.18887 1.08319-.908a.76259.76259 0 0 1 .98922.44951 2.10846 2.10846 0 0 1 .08972 1.35753 2.1673 2.1673 0 0 1 -.71914 1.16913c-.3598.29653-.84049.26961-1.443-.09019zm-30.503-29.698a15.05908 15.05908 0 0 1 .98922-1.978 9.76556 9.76556 0 0 0 .899-1.987 5.53866 5.53866 0 0 0 -.1799-3.05691 9.90494 9.90494 0 0 1 1.26356 2.96673 24.91145 24.91145 0 0 0 .80932 2.79627 4.04165 4.04165 0 0 0 1.25837 1.88826 3.56294 3.56294 0 0 0 2.7873.26961 2.40179 2.40179 0 0 1 -1.25884 1.70836 6.35713 6.35713 0 0 1 -2.4275.80933 8.44548 8.44548 0 0 1 -2.52193 0 4.27881 4.27881 0 0 1 -1.70836-.53924 4.98715 4.98715 0 0 1 .08972-2.87738zm2.89637 68.64506a3.26291 3.26291 0 0 1 -1.893 1.97844 18.60031 18.60031 0 0 1 -2.9672.899 9.13908 9.13908 0 0 1 0-7.91237c.71961-.11711 1.196-.02692 1.43874.26961a5.52825 5.52825 0 0 1 .62942.98923 2.339 2.339 0 0 0 .80932.899c.35933.24271 1.02039.17991 1.9827-.1799a6.51734 6.51734 0 0 0 -.90376 1.70836c-.23847.65644.06278 1.11493.90374 1.34866zm0 38.69825c-1.205-.2427-1.83443-.80932-1.893-1.71733a2.56191 2.56191 0 0 1 .98922-2.24759c.60251.1256.87212.6025.81357 1.43874a11.57967 11.57967 0 0 0 .09017 2.52621zm-2.88174-25.56208c-.12135.48587-.35981.7196-.71961.7196-.35933 0-.69222-.26961-.98875-.80932-.30126-.53923-.09019-1.28575.62942-2.24759.8362 1.07894 1.19554 1.86087 1.07894 2.33731zm-5.93865-50.92591q6.83767.539 7.91662 7.01286a1.91717 1.91717 0 0 0 -2.15788.89951q-1.44345.36405-1.88826-.27009a9.09808 9.09808 0 0 1 -.80932-1.34855 4.94593 4.94593 0 0 0 -.90329-1.25884q-.5397-.539-2.15787 0zm-3.06164 9.89932a5.73292 5.73292 0 0 1 2.43222 2.60739 2.59878 2.59878 0 0 1 -.44952 3.32653q-3.2439 0-3.60134-2.24759a3.58341 3.58341 0 0 1 1.61861-3.68633zm-3.1471 56.59966a4.63088 4.63088 0 0 0 .09019-2.06816 6.06273 6.06273 0 0 1 1.52845 2.60739 2.298 2.298 0 0 1 -.44951 2.428c-.841-.24317-1.32212-.4769-1.43875-.71961a1.42085 1.42085 0 0 1 -.08971-.899 8.982 8.982 0 0 1 .3593-1.34862zm-11.78758-65.42h3.05738v.899a3.95906 3.95906 0 0 0 1.6229-.71913 2.87223 2.87223 0 0 1 2.33778-.17991l-.53971-1.79854 1.43874-1.25837a1.34455 1.34455 0 0 0 -.62942-1.26781c-.4226-.23373-.51279-.83624-.26961-1.79855a1.59282 1.59282 0 0 1 1.34855.27009 3.50789 3.50789 0 0 1 .98875 1.07894 2.35515 2.35515 0 0 1 .35981 1.16865c0 .35981-.23846.54868-.71914.54868l.35933 1.79807-1.43827 1.25884c-.7196.71914-1.41182 1.46566-2.06816 2.2476a23.53151 23.53151 0 0 0 -1.89251 2.60739c-.841-.23373-1.14221-.899-.899-1.978l-1.61864.5397.5397-1.61864h-1.97851zm-19.79865 31.676a27.18441 27.18441 0 0 0 2.97192 1.61864c1.01567.47643 2.00489.899 2.9672 1.25837a4.34163 4.34163 0 0 1 -1.88826 1.349 3.70318 3.70318 0 0 1 -2.25231.17943 2.45767 2.45767 0 0 1 -1.61865-1.25837 5.09646 5.09646 0 0 1 -.17993-3.14717zm-7.1073 13.67584a3.581 3.581 0 0 1 1.43874-2.06816 4.06577 4.06577 0 0 1 2.25232-.62942 3.5697 3.5697 0 0 1 2.3373.899 4.06773 4.06773 0 0 1 -1.88779 3.50644 14.50223 14.50223 0 0 1 -4.05086 1.52893 5.45053 5.45053 0 0 1 -.08974-3.23689zm3.69106 33.92354c-.36453.4226-.90376.44951-1.62337.09018v-3.05738c.71961-.35934 1.25884-.33242 1.62337.09018a2.18838 2.18838 0 0 1 0 2.877zm5.03486 13.13605a13.98259 13.98259 0 0 1 -.08972 1.61865 6.22575 6.22575 0 0 1 -.3598 1.52846 4.89861 4.89861 0 0 1 -1.16913 1.62714 3.10615 3.10615 0 0 1 -1.25837-2.70608 7.19515 7.19515 0 0 0 -.7196-3.23682 5.75468 5.75468 0 0 1 3.95642-.899 7.90177 7.90177 0 0 0 -.3598 2.06765zm-.899-21.23691a37.90668 37.90668 0 0 1 -2.33778-3.1471q-1.07871-1.61841-2.25231-3.1471a8.06673 8.06673 0 0 0 -3.14711-2.43647 4.597 4.597 0 0 1 1.25884-2.877 3.50015 3.50015 0 0 1 2.25232-.71961 18.1571 18.1571 0 0 1 2.9672.27009 20.85754 20.85754 0 0 0 3.421.26962 5.63739 5.63739 0 0 1 .98922-2.87749q.80884-1.0787 5.12933 0c.3598-3.72222.32816-6.35653-.08972-7.92087q-.6339-2.33377-4.94989-3.95643a6.93986 6.93986 0 0 1 2.15787-3.32653 5.56912 5.56912 0 0 0 1.8028-3.6953 11.30611 11.30611 0 0 0 2.9672.71913 11.35794 11.35794 0 0 0 2.97145-.71913 1.64006 1.64006 0 0 0 1.25884-1.07894 9.7675 9.7675 0 0 0 .5397-1.97845c.11663-.71914.26962-1.43827.44952-2.15788a4.94971 4.94971 0 0 1 .80932-1.79807.74939.74939 0 0 0 -.8995-.63839 3.66544 3.66544 0 0 0 -1.52846.63839c-.53924.3598-1.07894.746-1.6229 1.16865a3.70864 3.70864 0 0 0 -.98875.98923 18.14616 18.14616 0 0 1 -3.1471-1.79808 10.05383 10.05383 0 0 1 -2.52193-2.52665 6.72481 6.72481 0 0 1 -1.16913-3.23682 8.976 8.976 0 0 1 .89951-4.31575 21.5874 21.5874 0 0 1 6.47789.899q2.87983.90376 5.39941 1.978-1.07941 3.77652 0 5.39469a8.05412 8.05412 0 0 0 2.88174 2.61637c1.19556.65634 2.3373 1.349 3.41624 2.06816a4.19141 4.19141 0 0 1 1.62337 3.77653l1.61817-.53971-.53923 1.61864h3.9602q0 2.88622-1.08319 3.96493a5.57645 5.57645 0 0 1 -2.877-3.06589l-1.61865.53923.53971-1.43827a12.30607 12.30607 0 0 0 -3.33126.08972 1.70229 1.70229 0 0 0 -1.52892 1.88826 2.40716 2.40716 0 0 0 .45 2.07666 3.51828 3.51828 0 0 0 1.52845.89951 15.52244 15.52244 0 0 0 1.98223.44952 9.21659 9.21659 0 0 1 1.97845.53923 4.94624 4.94624 0 0 0 -.80933 1.88826c-.1799.78241-.3598 1.56435-.5397 2.33778a18.42558 18.42558 0 0 1 -.62942 2.15788 3.287 3.287 0 0 1 -1.08319 1.53743l.544 1.43874-1.443-.3598a4.5011 4.5011 0 0 1 .08972 3.41672 12.16563 12.16563 0 0 1 -1.43874 2.24759 10.57061 10.57061 0 0 0 -1.25837 1.88826c-.30126.60251-.09019 1.32164.629 2.16685l1.43874-.36878-.53924 1.44772h3.96068c.238.7196.20634 1.23192-.09019 1.52845a3.48135 3.48135 0 0 1 -1.07894.71961 2.21157 2.21157 0 0 0 -.99347.80885c-.23845.35981-.1799 1.01614.1799 1.97845l1.443.35933-1.443.53971a1.53679 1.53679 0 0 0 .63367 1.34855c.41835.3055.56662.87212.44952 1.70836-1.8028.3598-2.76463.12607-2.88174-.71913a2.67683 2.67683 0 0 1 .89951-2.33778h-1.07894v-.899q.357-2.69782-.8995-3.95642l-1.43827.3598.35933-1.43874a4.672 4.672 0 0 0 -1.89251 0 2.44666 2.44666 0 0 0 -1.07894.62942c-.30126.297-.60251.56662-.899.80932a2.96245 2.96245 0 0 1 -1.16913.53923 3.89057 3.89057 0 0 0 .09019 1.88826c.1799.53971.35981 1.01614.53923 1.43875a2.33833 2.33833 0 0 1 .17991 1.25884 2.54339 2.54339 0 0 1 -.80933 1.34855 10.7862 10.7862 0 0 0 -2.97144-.5397 8.09284 8.09284 0 0 0 -2.33778.3598c-.78194.2427-1.59126.48541-2.43175.71961a17.25869 17.25869 0 0 1 -3.05738.53923 7.28959 7.28959 0 0 1 -3.24125-2.24765zm7.2017 10.16891v-3.95643q1.97608-.364 2.60739.80933a4.82336 4.82336 0 0 1 .27009 3.1471zm1.978 6.84241c-.48068 1.43827-.9302 2.00489-1.34855 1.70835a5.97684 5.97684 0 0 0 -2.61165-.62942v-2.87748c1.32164-.35933 2.07242-.15252 2.25185.62942a1.51242 1.51242 0 0 0 1.70832 1.16914zm6.20874 30.49784a10.26229 10.26229 0 0 0 -1.61864 1.62762 22.88111 22.88111 0 0 1 -1.53271 1.70836q-4.85523-1.61841-5.48913-3.87521a7.30008 7.30008 0 0 1 .544-4.94518 27.81914 27.81914 0 0 1 3.23681-5.48488 13.89711 13.89711 0 0 0 2.61165-5.49338c1.43874-.3598 2.30661-.2427 2.60739.3598a2.72938 2.72938 0 0 1 .09019 2.0677 7.33944 7.33944 0 0 1 -.98922 2.06816q-.63392.90375-.80933.53923a6.89375 6.89375 0 0 0 1.07942 2.61637q.71464.9845 1.70788 2.15788a17.59891 17.59891 0 0 1 1.893 2.78729 15.11471 15.11471 0 0 1 1.43827 4.32473 5.2574 5.2574 0 0 0 -2.79155-1.08791 3.16244 3.16244 0 0 0 -1.97806.62943zm7.647 7.29193a6.46185 6.46185 0 0 0 -3.95642-1.07894q1.0794-1.79335 3.95642-1.79808zm1.9827-19.79865c-1.32212.2427-2.18952-.02691-2.61212-.80932a4.75478 4.75478 0 0 1 -.26962-3.14663h2.88174zm17.00662.71961a1.61753 1.61753 0 0 1 -.3598 1.17762 3.08274 3.08274 0 0 1 -1.25837.98923 1.70388 1.70388 0 0 1 -1.53318 0 2.70749 2.70749 0 0 1 1.07894-1.349 2.78489 2.78489 0 0 0 1.08319-1.53743c.59823.12606.9264.35979.9892.71959zm-.98922-4.85546v-1.79807c.83624-.24271 1.349-.11711 1.52893.35933a4.57041 4.57041 0 0 1 .26961 1.61864c-.6025-.1171-.899.1799-.899.899a.99525.99525 0 0 1 -.89956-1.07889zm1.79854 29.87787c-.6025.11663-.98922.02691-1.16912-.26962a4.77042 4.77042 0 0 1 -.44952-.98922c-.12135-.35981-.2427-.71914-.35933-1.08791a.83653.83653 0 0 0 -.90376-.53971c.2427-.71913.60251-1.10585 1.08319-1.16865a1.46816 1.46816 0 0 1 1.25884.44952 3.373 3.373 0 0 1 .80932 1.53742 2.84651 2.84651 0 0 1 -.26964 2.06818zm.53924-37.07961a2.80173 2.80173 0 0 1 -.53924 2.34628q-1.44345-.72812-4.05086-1.80705a33.51926 33.51926 0 0 0 -5.39894-1.70836 14.03054 14.03054 0 0 0 -5.12933-.26961 3.94606 3.94606 0 0 0 -3.23681 2.69711c-.60251.72858-.8726.90848-.80932.54868.05855-.36878.1799-.908.35933-1.62762a13.768 13.768 0 0 0 .3598-2.24759 1.35385 1.35385 0 0 0 -.80932-1.52846l-.53923-1.43874-.544-1.61817a5.15467 5.15467 0 0 0 -1.79855.98875 14.41241 14.41241 0 0 1 -1.52845 1.16912 7.94932 7.94932 0 0 1 -1.89251.899 5.03829 5.03829 0 0 1 -2.69711 0l.53923 1.61817q-.72174.364-1.978 1.07894c-.51609.31825-1.22248.80885-2.01528 1.37689.0137.05.01795.102.03259.15157.12135.4226-.05856.62942-.53924.62942-.27859.01936-.48587.093-.7451.127q-2.12129 1.58016-5.19355 4.01828c.44244-2.31606 2.21313-3.62637 5.19355-4.01828.46887-.349.85276-.62187 1.25175-.908a8.75366 8.75366 0 0 1 -.237-1.1068 1.37164 1.37164 0 0 1 .26962-1.07894c.2427-.297 1.02038-.27009 2.342.08972l-.35933-1.43875 1.43875-.53923q.539-2.33305-.27009-3.23682a3.94327 3.94327 0 0 1 -.80933-2.70655 20.8905 20.8905 0 0 1 4.9499 1.1781q2.0632.80884 4.04614 1.70836l1.443-.35981.53971 1.43874a27.57441 27.57441 0 0 0 10.43855-1.43874q4.31553-1.61841 8.45633-3.60559a3.76317 3.76317 0 0 1 2.79155 1.80752 11.06008 11.06008 0 0 1 1.16913 3.23681q-2.87985-.5397-3.69106.26962a3.33784 3.33784 0 0 0 -.899 2.24759 17.28152 17.28152 0 0 0 .0897 3.0575zm4.57593 57.1507a4.0213 4.0213 0 0 1 -1.43875 1.17763 2.00457 2.00457 0 0 1 -1.62289.1799c-.48068-.1799-.53923-.755-.1799-1.71733a3.60984 3.60984 0 0 1 1.26356-.98875 1.54857 1.54857 0 0 1 1.79807-.09019.99907.99907 0 0 1 .17989 1.43875zm-.17991-156.21333q-1.98246-3.77652-.98875-5.7545a4.62257 4.62257 0 0 1 3.23682-2.51721 11.0274 11.0274 0 0 1 5.03961.08972 10.03861 10.03861 0 0 1 4.58962 2.24759 5.11687 5.11687 0 0 1 -2.42749 2.06816c-1.02511.4226-2.10405.80932-3.24154 1.16865-1.14174.35981-2.27923.71961-3.421 1.07894a6.70813 6.70813 0 0 0 -2.78729 1.61866zm8.92 113.646a6.3482 6.3482 0 0 0 -.899 1.79855q-2.34014-.53972-1.978-3.9654h3.06166a2.53427 2.53427 0 0 1 -.18466 2.16687zm-1.88826-102.05014a19.8906 19.8906 0 0 1 -.98875-3.41671q2.6971-.539 3.33125 1.07893a10.43892 10.43892 0 0 1 .62942 3.7855c-1.56009.11665-2.55357-.35979-2.97192-1.4477zm3.96067 110.77183c.05855-.53971.1171-1.07894.1799-1.61865a3.26867 3.26867 0 0 0 -.08971-1.34855q1.25435-.3506 1.61817.26961a1.50612 1.50612 0 0 0 1.43874.62942 2.37527 2.37527 0 0 1 -.08971 1.52846 2.006 2.006 0 0 1 -.71961.71961 7.52027 7.52027 0 0 0 -.899.63839 1.27845 1.27845 0 0 0 -.44952 1.07894c-.6025 0-.93067-.1799-.98922-.53971a4.86677 4.86677 0 0 1 -.00004-1.35752zm5.3097 16.202a22.4219 22.4219 0 0 0 -2.3425-.44952 11.82664 11.82664 0 0 0 -2.877 0 2.21651 2.21651 0 0 1 1.52845-2.06816 5.50418 5.50418 0 0 1 2.97145-.08971 10.82635 10.82635 0 0 1 3.14715 1.25889 6.79274 6.79274 0 0 1 2.25231 1.978 6.98454 6.98454 0 0 1 -2.52193-.08971q-1.07946-.26988-2.15793-.53979zm5.47449 23.22717a2.91246 2.91246 0 0 1 -1.34855-.98923 2.976 2.976 0 0 0 -1.53318-.98875.89474.89474 0 0 1 1.07894-.80932 3.7203 3.7203 0 0 0 1.80279-.26962zm14.30527-3.41672a3.12923 3.12923 0 0 1 -.62942-1.34855 14.22525 14.22525 0 0 1 -.26962-1.71734 3.22464 3.22464 0 0 0 -.44952-1.43874c1.55962-.23373 2.4903.1799 2.79155 1.25884a8.10058 8.10058 0 0 1 .08972 3.60559 1.55327 1.55327 0 0 1 -1.53271-.35975zm12.511 18.35093c3.11546-.59353 4.49565.71961 4.13632 3.9654q-4.68032.53905-4.13635-3.96535zm-.35934-18.08131a.68252.68252 0 0 1 .35934-.899c.3598-.1799 1.01613.144 1.97844.98922-.6025.83624-1.11057 1.14174-1.52845.899a1.61682 1.61682 0 0 1 -.80936-.98917zm41.21122 24.92372a4.02561 4.02561 0 0 0 -2.51768.08971q-1.26782.44552-2.43222.80933a7.553 7.553 0 0 1 -2.24759.3598 2.09931 2.09931 0 0 1 -1.8028-1.25884 1.65943 1.65943 0 0 1 1.08366-1.79807 21.1808 21.1808 0 0 1 2.33731-.62943 21.446 21.446 0 0 0 2.33778-.62942 1.67109 1.67109 0 0 0 1.08366-1.80751c.83624-.23373 1.4071-.20682 1.70836.09018a1.74587 1.74587 0 0 1 .44952 1.26782c0 .53923-.03164 1.14174-.09019 1.79807a5.0534 5.0534 0 0 0 .09016 1.70841zm-2.15788-24.83354a2.7599 2.7599 0 0 0 -1.6229 1.07894c-.48115.602-.899 1.14174-1.25884 1.61818a2.85159 2.85159 0 0 1 -1.25884.98922c-.48115.1799-1.02038-.02692-1.61817-.62942a18.74182 18.74182 0 0 1 .80885-4.31576 35.32439 35.32439 0 0 1 1.43869-3.78541c.53924-1.19557 1.04731-2.42749 1.52846-3.68633a20.85538 20.85538 0 0 0 1.07894-4.04614 1.92613 1.92613 0 0 1 1.53318 2.06816 17.76435 17.76435 0 0 1 -.62942 3.50643c-.3598 1.32164-.66106 2.64328-.90376 3.95643a3.45556 3.45556 0 0 0 .90378 3.24575zm15.83325 2.2476a2.7696 2.7696 0 0 1 -1.70836 0 2.60016 2.60016 0 0 1 -1.34856-1.07894 1.89494 1.89494 0 0 1 .17991-2.06816 7.429 7.429 0 0 1 1.978.98922 7.72115 7.72115 0 0 0 1.9827.98922 1.4432 1.4432 0 0 1 -1.08372 1.16871zm-.35933-9.71942a31.50863 31.50863 0 0 1 -4.40595-1.52846 6.37787 6.37787 0 0 1 -3.15135-2.87749 15.21737 15.21737 0 0 1 4.4102.89951c1.25884.47644 2.42749.899 3.50643 1.25837a8.61844 8.61844 0 0 0 3.24154.45 7.96652 7.96652 0 0 0 3.78077-1.52893v7.91238a6.02293 6.02293 0 0 0 -2.97145-2.9672 26.20331 26.20331 0 0 0 -4.41022-1.61813zm4.4999 10.52874a1.89285 1.89285 0 0 1 2.07242-1.978 3.42651 3.42651 0 0 1 2.78729 1.07894 1.66216 1.66216 0 0 1 -1.978 1.88779 4.22957 4.22957 0 0 1 -2.88174-.98868zm5.21952 11.15816a5.07639 5.07639 0 0 1 -1.25884-4.13632h3.05691a3.29748 3.29748 0 0 0 -.26962 2.15835 2.70814 2.70814 0 0 0 .81358 1.16865 7.58953 7.58953 0 0 1 .98922.98922 1.97781 1.97781 0 0 1 .26962 1.61818 6.39287 6.39287 0 0 1 -3.6009-1.79803zm12.32681-17.46086a1.89973 1.89973 0 0 0 -.80932 1.43827h-1.79807v-3.05692h2.877q.36474 1.26787-.26964 1.6187zm1.08364-21.05747c-.4226-.1171-.90375-.23373-1.44346-.3598a7.09548 7.09548 0 0 0 -2.24759 0l.3598 1.44771-1.43874.53924a3.55272 3.55272 0 0 1 .08971 2.06816 2.80168 2.80168 0 0 1 -.80885 1.07894 5.58627 5.58627 0 0 0 -.99347 1.07894 2.21765 2.21765 0 0 0 -.27009 1.70835l1.44347 1.07894-.53971 1.978q1.07869.90375 1.07894 1.53743c0 .41363-.12135.65633-.35981.7196a1.34413 1.34413 0 0 1 -.99347-.3598 2.25332 2.25332 0 0 1 -.62942-1.89723l-.53923-1.61817.53923-1.43875a2.99936 2.99936 0 0 1 -1.79807-3.41671 5.72728 5.72728 0 0 1 1.79807-3.59662h.90376l.53971-1.44725a2.10827 2.10827 0 0 0 1.43827-.1799q.89667-.35059 2.33777-1.07894a24.64166 24.64166 0 0 0 3.60087-2.33778 2.81752 2.81752 0 0 0 .62942 2.0677 2.4239 2.4239 0 0 1 .44952 2.06816 4.25085 4.25085 0 0 1 -1.79807.5397 4.66576 4.66576 0 0 1 -1.34856-.17992zm7.10731 12.4255c-2.76039-.35933-4.44136-1.98694-5.03962-4.864a8.12664 8.12664 0 0 1 5.03961 4.86403zm-2.07242 22.22662c-1.02038.1799-2.00961.38671-2.9672.62942a3.45928 3.45928 0 0 1 .35981-1.71734c.23845-.41363.47643-.83623.71913-1.25884.23846-.41363.47691-.83623.71961-1.25884a3.4518 3.4518 0 0 0 .35933-1.70836c.71961-.1171 1.17338.03589 1.35328.44952a5.15376 5.15376 0 0 1 .3598 1.34856 11.26549 11.26549 0 0 0 .26962 1.43874.84213.84213 0 0 0 .899.71914 2.633 2.633 0 0 1 -2.07239 1.35803zm.08972-12.15636a3.02 3.02 0 0 0 .18462-1.70836 4.77814 4.77814 0 0 0 -.45424-1.07894c-.1799-.29653-.35933-.59306-.53923-.899a1.9126 1.9126 0 0 1 -.09019-1.34855h3.96068a6.45355 6.45355 0 0 1 .62942 3.68633q-.26987 1.7126-3.69107 1.34855zm5.94337-29.8689c-.96184-.83576-1.53318-1.05155-1.71261-.629-.1799.42213-.93067.629-2.24806.629q-.539-1.07871.26961-1.61817a3.16815 3.16815 0 0 1 1.79855-.53971 2.77826 2.77826 0 0 1 1.71261.53971c.47642.35983.53969.89906.17992 1.6182zm-58.38121-22.61427c-33.61237 0-60.86065-16.432-60.86065-36.70234 0-20.26988 27.24828-36.70233 60.86065-36.70233s60.86064 16.43245 60.86064 36.70233c-.00001 20.27039-27.24829 36.70237-60.86065 36.70237zm106.9698-102.46233c.84049.59354 1.08319 1.04306.71914 1.34856a2.04967 2.04967 0 0 1 -1.34856.45 1.16272 1.16272 0 0 1 -1.07894-.45c-.1799-.3055.38672-.75502 1.70836-1.34856zm-12.68662 8.09228a9.17573 9.17573 0 0 0 1.88826-.1799q.36407 1.26782-.3598 1.61817a1.45648 1.45648 0 0 0 -.71914 1.44771 1.40839 1.40839 0 0 1 -.98922-1.17762.86036.86036 0 0 0 -.98875-.80932 1.05278 1.05278 0 0 1 1.16865-.89904zm-6.748 55.25111a12.83189 12.83189 0 0 1 2.7873 5.763 4.2609 4.2609 0 0 1 -.08972 2.33778c-2.87748-2.27451-4.55893-5.58357-5.03961-9.89933a6.50322 6.50322 0 0 1 2.34208 1.79855zm-23.03546 79.72484q1.79406.7281 1.79807 3.96492-2.3394-.53899-1.79804-3.96492zm18.17575-128.04383c-.3598.29653-.84049.26962-1.43874-.08971v-1.97845c.59825.1171.89951-.2427.89951-1.07894a.86659.86659 0 0 1 1.07894.53971 2.05351 2.05351 0 0 1 .17943 1.43874 2.166 2.166 0 0 1 -.71911 1.16865zm8.45633 71.35445c-3.83932.35933-5.8173-.95334-5.93865-3.95642h5.03961a1.99324 1.99324 0 0 0 .53924 1.978c.48123.35978.60253 1.02508.35983 1.97842zm.72386-42.83411a2.84083 2.84083 0 0 0 -1.6229.17943 2.10425 2.10425 0 0 1 .26962-2.06769 3.15568 3.15568 0 0 1 1.71261-.80932 15.17242 15.17242 0 0 1 2.428-.1799h2.61164a2.5784 2.5784 0 0 1 -.08971 2.06816 2.54768 2.54768 0 0 1 -1.08366.899 11.90833 11.90833 0 0 0 -1.25884.63839 1.50155 1.50155 0 0 0 -.62895 1.43874 1.35517 1.35517 0 0 1 -.80932-.7196 3.57889 3.57889 0 0 0 -.62942-.908 2.42533 2.42533 0 0 0 -.89904-.53921zm4.13585 89.63314c-.96231-.36878-1.9199-.72811-2.877-1.08791a1.82318 1.82318 0 0 1 1.25837-1.61817 3.03123 3.03123 0 0 1 2.15787.08971 5.33756 5.33756 0 0 1 1.893 1.34856 2.56325 2.56325 0 0 1 .62942 2.16685 23.37118 23.37118 0 0 1 -3.06163-.89904zm25.01819-38.87814h-1.9827l-.5397 1.61865-.53924-1.61865c-.84048.11711-1.25884.53971-1.25884 1.25885 0 .7196-.53923.9623-1.61817.7196l.53923 1.43827-1.61817.53971c-1.32211 2.04077-1.80279 3.66839-1.44346 4.864a12.26491 12.26491 0 0 0 2.5224 4.13632 5.32362 5.32362 0 0 1 -1.349.17943c-.4226 0-.63367.24318-.63367.71961l1.443 1.25884-.53924 1.807a1.12373 1.12373 0 0 1 .98875 1.07894c.05855.6025.09019 1.25884.09019 1.978h-3.06164v-3.05691l-1.43874-1.26782.35981-1.79807h-3.96068a3.50156 3.50156 0 0 1 -1.16912-2.24806q-.26915-1.5235-.53924-2.96673a8.99065 8.99065 0 0 0 -.899-2.60787 2.33485 2.33485 0 0 0 -2.25232-1.17762c.36406-1.196 1.38019-1.79808 3.06164-1.79808l-.53971-1.79854 1.43875-1.25885a1.18961 1.18961 0 0 0 -.98923-.899 6.34937 6.34937 0 0 0 -1.88826-.08972c-.71913.0628-1.46991.11663-2.25231.1799a6.08119 6.08119 0 0 1 -1.88779-.09018 4.47828 4.47828 0 0 1 .899-3.50644 4.63424 4.63424 0 0 1 2.70184-1.44771 6.13278 6.13278 0 0 1 3.14663.27906 4.31961 4.31961 0 0 1 2.25231 1.61817c.83624-.1171 1.25884-.53923 1.25884-1.25884 0-.7281.53971-.96183 1.61865-.7281v1.08784l1.61817.3598-.38058 1.43827h1.824l1.61817-.35933-.53923 1.43827h1.978c0 .71961.29653 1.07894.899 1.07894v-1.07895h3.06164zm2.06769-32.03527a4.43739 4.43739 0 0 1 -.08971-2.69758c1.07893.6025 1.73952 1.91517 1.98269 3.956a2.13891 2.13891 0 0 1 -1.89298-1.25844z"/><path d="m332.117 224.184-.36 2.518 2.343-.72-1.444-.359.54-1.439z"/></g></svg>